<svg width="15" height="16" viewBox="0 0 15 16" fill="none" xmlns="http://www.w3.org/2000/svg">
<path d="M4.52136 0.970093C2.1922 0.970093 0.296875 2.85291 0.296875 5.16669V10.9774C0.296875 13.2911 2.1922 15.174 4.52136 15.174H10.3707C12.6998 15.174 14.5951 13.2911 14.5951 10.9774V5.16669C14.5951 2.85291 12.6998 0.970093 10.3707 0.970093H4.52136ZM4.52136 1.61572H10.3707C12.3485 1.61572 13.9452 3.20188 13.9452 5.16669V10.9774C13.9452 12.9422 12.3485 14.5283 10.3707 14.5283H4.52136C2.5435 14.5283 0.946796 12.9422 0.946796 10.9774V5.16669C0.946796 3.20188 2.5435 1.61572 4.52136 1.61572ZM11.3455 3.55261C11.1732 3.55261 11.0079 3.62064 10.886 3.74171C10.7641 3.86279 10.6956 4.02701 10.6956 4.19824C10.6956 4.36948 10.7641 4.53369 10.886 4.65477C11.0079 4.77585 11.1732 4.84387 11.3455 4.84387C11.5179 4.84387 11.6832 4.77585 11.8051 4.65477C11.927 4.53369 11.9955 4.36948 11.9955 4.19824C11.9955 4.02701 11.927 3.86279 11.8051 3.74171C11.6832 3.62064 11.5179 3.55261 11.3455 3.55261ZM7.44601 4.52106C5.47568 4.52106 3.87144 6.1147 3.87144 8.07203C3.87144 10.0293 5.47568 11.623 7.44601 11.623C9.41634 11.623 11.0206 10.0293 11.0206 8.07203C11.0206 6.1147 9.41634 4.52106 7.44601 4.52106ZM7.44601 5.16669C9.06509 5.16669 10.3707 6.46363 10.3707 8.07203C10.3707 9.68042 9.06509 10.9774 7.44601 10.9774C5.82692 10.9774 4.52136 9.68042 4.52136 8.07203C4.52136 6.46363 5.82692 5.16669 7.44601 5.16669Z" fill="#161616"/>
<path d="M4.52136 0.970093C2.1922 0.970093 0.296875 2.85291 0.296875 5.16669V10.9774C0.296875 13.2911 2.1922 15.174 4.52136 15.174H10.3707C12.6998 15.174 14.5951 13.2911 14.5951 10.9774V5.16669C14.5951 2.85291 12.6998 0.970093 10.3707 0.970093H4.52136ZM4.52136 1.61572H10.3707C12.3485 1.61572 13.9452 3.20188 13.9452 5.16669V10.9774C13.9452 12.9422 12.3485 14.5283 10.3707 14.5283H4.52136C2.5435 14.5283 0.946796 12.9422 0.946796 10.9774V5.16669C0.946796 3.20188 2.5435 1.61572 4.52136 1.61572ZM11.3455 3.55261C11.1732 3.55261 11.0079 3.62064 10.886 3.74171C10.7641 3.86279 10.6956 4.02701 10.6956 4.19824C10.6956 4.36948 10.7641 4.53369 10.886 4.65477C11.0079 4.77585 11.1732 4.84387 11.3455 4.84387C11.5179 4.84387 11.6832 4.77585 11.8051 4.65477C11.927 4.53369 11.9955 4.36948 11.9955 4.19824C11.9955 4.02701 11.927 3.86279 11.8051 3.74171C11.6832 3.62064 11.5179 3.55261 11.3455 3.55261ZM7.44601 4.52106C5.47568 4.52106 3.87144 6.1147 3.87144 8.07203C3.87144 10.0293 5.47568 11.623 7.44601 11.623C9.41634 11.623 11.0206 10.0293 11.0206 8.07203C11.0206 6.1147 9.41634 4.52106 7.44601 4.52106ZM7.44601 5.16669C9.06509 5.16669 10.3707 6.46363 10.3707 8.07203C10.3707 9.68042 9.06509 10.9774 7.44601 10.9774C5.82692 10.9774 4.52136 9.68042 4.52136 8.07203C4.52136 6.46363 5.82692 5.16669 7.44601 5.16669Z" stroke="#161616"/>
</svg>
