<svg width="15" height="17" viewBox="0 0 15 17" fill="none" xmlns="http://www.w3.org/2000/svg">
<path d="M14.8704 14.8416L10.1213 12.6256L14.8704 10.4096L13.9697 8.57528L7.81607 11.484L1.66241 8.57528L0.761719 10.4096L5.51081 12.6256L0.761719 14.8416L1.66241 16.676L7.81607 13.7673L13.9697 16.676L14.8704 14.8416ZM5.48562 7.92107C5.48562 7.92107 5.48247 9.54698 5.83204 9.54698H9.80011C10.1465 9.54698 10.1465 7.92107 10.1465 7.92107C10.6914 7.92107 11.0724 7.30213 11.422 6.88844C12.0046 6.20216 12.351 5.34911 12.351 4.4159C12.351 2.1486 10.3197 0.311035 7.81607 0.311035C5.31241 0.311035 3.28113 2.1486 3.28113 4.4159C3.28113 5.34911 3.62755 6.20216 4.21016 6.88844C4.55973 7.30213 5.00693 7.92748 5.48562 7.92107ZM9.51353 3.56286C10.1213 3.52437 10.6252 4.03427 10.5843 4.65321C10.5528 5.16311 10.1465 5.57681 9.6458 5.60887C9.03799 5.64736 8.53411 5.13746 8.57505 4.51852C8.60654 4.01183 9.01279 3.59493 9.51353 3.56286ZM5.98635 3.56286C6.59416 3.52437 7.09804 4.03427 7.0571 4.65321C7.02561 5.16311 6.61935 5.57681 6.11862 5.60887C5.51081 5.64736 5.00693 5.13746 5.04787 4.51852C5.07936 4.01183 5.48562 3.59493 5.98635 3.56286Z" fill="#1E1E1E"/>
</svg>
