<svg width="15" height="12" viewBox="0 0 15 12" fill="none" xmlns="http://www.w3.org/2000/svg">
<path d="M13.2073 3.14292C13.2165 3.27067 13.2165 3.39844 13.2165 3.52618C13.2165 7.42255 10.2311 11.9121 4.77484 11.9121C3.09386 11.9121 1.53231 11.4284 0.21875 10.589C0.457586 10.6163 0.687204 10.6254 0.935229 10.6254C2.32224 10.6254 3.59907 10.1601 4.61868 9.36621C3.31431 9.33882 2.22122 8.4902 1.8446 7.32219C2.02833 7.34955 2.21203 7.3678 2.40495 7.3678C2.67132 7.3678 2.93772 7.33129 3.18572 7.26745C1.82625 6.99367 0.806608 5.80743 0.806608 4.37481V4.33832C1.20158 4.55732 1.6609 4.69419 2.1477 4.71242C1.34855 4.18316 0.824987 3.2798 0.824987 2.25779C0.824987 1.7103 0.97193 1.20842 1.22914 0.770418C2.68967 2.55892 4.88506 3.7269 7.34679 3.85467C7.30087 3.63567 7.2733 3.40757 7.2733 3.17944C7.2733 1.55517 8.59605 0.232056 10.2403 0.232056C11.0945 0.232056 11.8661 0.58793 12.4081 1.16281C13.0786 1.03506 13.7216 0.788675 14.2912 0.451058C14.0707 1.13545 13.6022 1.71033 12.9868 2.0753C13.5839 2.01146 14.1626 1.84717 14.6953 1.61907C14.2912 2.20304 13.786 2.72315 13.2073 3.14292Z" fill="#161616"/>
</svg>
