<svg width="32" height="32" viewBox="0 0 32 32" fill="none" xmlns="http://www.w3.org/2000/svg">
<path d="M26.0216 20.8504C25.1692 22.4509 24.4743 23.0251 23.4931 23.6484C22.3154 24.332 21.0987 24.9436 19.8496 25.48C16.9382 26.8059 13.4025 27.8807 10.9433 26.1496C8.48405 24.4184 6.09988 23.1388 4.99699 20.7674C4.45875 19.5597 4.28451 17.9942 4.51156 16.1447C4.73565 14.3846 5.1893 12.6597 5.8607 11.0147C6.52858 9.50175 7.06491 8.99242 7.93307 8.40963C8.78135 7.87511 9.96599 7.27058 11.411 6.63706C14.3163 5.30564 18.1093 4.1625 20.9386 5.71404C23.7679 7.26558 26.4764 8.342 27.5658 10.7207C28.1056 11.9279 28.2073 13.5373 27.8553 15.467C27.5202 17.3469 26.7312 19.5445 26.0216 20.8504Z" fill="#FFF200"/>
<path d="M26.0216 20.8504C25.1692 22.4509 24.4743 23.0251 23.4931 23.6484C22.3154 24.332 21.0987 24.9436 19.8496 25.48C16.9382 26.8059 13.4025 27.8807 10.9433 26.1496C8.48405 24.4184 6.09988 23.1388 4.99699 20.7674C4.45875 19.5597 4.28451 17.9942 4.51156 16.1447C4.73565 14.3846 5.1893 12.6597 5.8607 11.0147C6.52858 9.50175 7.06491 8.99242 7.93307 8.40963C8.78135 7.87511 9.96599 7.27058 11.411 6.63706C14.3163 5.30564 18.1093 4.1625 20.9386 5.71404C23.7679 7.26558 26.4764 8.342 27.5658 10.7207C28.1056 11.9279 28.2073 13.5373 27.8553 15.467C27.5202 17.3469 26.7312 19.5445 26.0216 20.8504Z" stroke="#231F20" stroke-miterlimit="10"/>
<path d="M24.3507 19.7849C22.9384 22.2148 21.3782 22.6848 19.0701 23.6085C16.863 24.3081 13.901 25.4579 11.9792 24.0313C10.0574 22.6046 8.00909 21.8965 7.22871 19.6714C6.35436 17.6639 6.74791 14.1369 7.53128 12.0803" stroke="black" stroke-width="1.8" stroke-miterlimit="10"/>
<path d="M14.9814 10.8673C14.6444 11.6885 14.5453 11.7005 14.1773 12.0766C13.8308 12.4115 13.3452 12.8044 13.2848 12.2339C13.1672 11.7982 12.9562 11.5991 12.9136 11.277C12.8357 11.022 13.0747 10.4038 13.3956 9.90511C13.6399 9.52021 13.69 9.70235 14.0366 9.39024C14.3663 9.11272 14.9251 8.42778 15.1132 8.4958C15.3466 8.49396 15.6315 8.30296 15.7127 8.48516C15.8372 8.57127 15.4253 9.78449 14.9814 10.8673Z" fill="black"/>
<path d="M21.9394 15.0863C21.7183 15.6502 21.6699 15.5534 21.2657 16.034C20.8894 16.4577 20.1755 17.353 19.9688 17.1019C19.7289 16.9391 19.3637 17.0681 19.3615 16.6913C19.3055 16.4118 19.9098 15.0796 20.3626 14.2709C20.8871 13.3738 21.4796 13.0521 21.8529 13.2574C22.1705 13.5892 22.5764 13.4662 21.9394 15.0863Z" fill="black"/>
</svg>
