<svg width="55" height="54" viewBox="0 0 55 54" fill="none" xmlns="http://www.w3.org/2000/svg">
<circle cx="26.9897" cy="26.9897" r="25.4897" transform="matrix(1 0 0 -1 0.27832 53.9795)" stroke="#F16A24" stroke-width="3"/>
<path d="M27.4385 13.3235L22.9566 13.3235L22.9566 17.1955L27.3937 17.1955L27.3937 21.0675L31.8084 21.0675L31.8084 24.9394L1.9855 24.9394L1.9855 28.8114L31.8084 28.8114L31.8084 32.6833L27.3937 32.6833L27.3937 36.5553L22.9566 36.5553L22.9566 40.4272L27.4385 40.4272L27.4385 36.5553L31.8756 36.5553L31.8756 32.6833L36.2904 32.6833L36.2904 28.8114L40.7051 28.8114L40.7051 24.9394L36.2904 24.9394L36.2904 21.0675L31.8756 21.0675L31.8756 17.1955L27.4385 17.1955L27.4385 13.3235Z" fill="#E77236"/>
</svg>
