<svg width="40" height="41" viewBox="0 0 40 41" fill="none" xmlns="http://www.w3.org/2000/svg">
<path d="M39.0112 20.4398C39.0112 31.1019 30.3678 39.7452 19.7056 39.7452C9.0434 39.7452 0.4 31.1019 0.4 20.4398C0.4 9.77779 9.0434 1.1345 19.7056 1.1345C30.3678 1.1345 39.0112 9.77779 39.0112 20.4398Z" stroke="#E77236" stroke-width="0.8"/>
<path d="M39.0112 20.4398C39.0112 24.3109 36.8921 27.848 33.4016 30.4315C29.9111 33.015 25.0702 34.6249 19.7056 34.6249C14.341 34.6249 9.50004 33.015 6.0096 30.4315C2.51908 27.848 0.4 24.3109 0.4 20.4398C0.4 16.5687 2.51908 13.0316 6.0096 10.4481C9.50004 7.86467 14.341 6.25474 19.7056 6.25474C25.0702 6.25474 29.9111 7.86467 33.4016 10.4481C36.8921 13.0316 39.0112 16.5687 39.0112 20.4398Z" stroke="#E77236" stroke-width="0.8"/>
<path d="M39.0112 20.44C39.0112 21.1888 38.5635 21.9635 37.6126 22.7247C36.6656 23.4828 35.2706 24.1832 33.5113 24.7789C29.9966 25.9688 25.1156 26.7119 19.7056 26.7119C14.2956 26.7119 9.41454 25.9688 5.89991 24.7789C4.14058 24.1832 2.7456 23.4828 1.79853 22.7247C0.84764 21.9635 0.4 21.1888 0.4 20.44C0.4 19.6912 0.84764 18.9164 1.79853 18.1552C2.7456 17.3971 4.14058 16.6968 5.89991 16.1011C9.41454 14.9111 14.2956 14.1681 19.7056 14.1681C25.1156 14.1681 29.9966 14.9111 33.5113 16.1011C35.2706 16.6968 36.6656 17.3971 37.6126 18.1552C38.5635 18.9164 39.0112 19.6912 39.0112 20.44Z" stroke="#E77236" stroke-width="0.8"/>
<path d="M32.9588 20.4398C32.9588 25.8102 31.4498 30.6547 29.0308 34.1458C26.6107 37.6384 23.3069 39.7452 19.7046 39.7452C16.1022 39.7452 12.7984 37.6384 10.3783 34.1458C7.95928 30.6547 6.45029 25.8102 6.45029 20.4398C6.45029 15.0695 7.95928 10.2249 10.3783 6.73388C12.7984 3.24127 16.1022 1.1345 19.7046 1.1345C23.3069 1.1345 26.6107 3.24127 29.0308 6.73388C31.4498 10.2249 32.9588 15.0695 32.9588 20.4398Z" stroke="#E77236" stroke-width="0.8"/>
<path d="M27.2195 20.4398C27.2195 25.8433 26.3392 30.7167 24.9306 34.2245C24.2258 35.9795 23.3966 37.373 22.4964 38.3212C21.597 39.2685 20.654 39.7452 19.7062 39.7452C18.7585 39.7452 17.8155 39.2685 16.9161 38.3212C16.0158 37.373 15.1867 35.9795 14.4819 34.2245C13.0732 30.7167 12.193 25.8433 12.193 20.4398C12.193 15.0364 13.0732 10.1629 14.4819 6.65512C15.1867 4.90013 16.0158 3.50667 16.9161 2.55845C17.8155 1.61115 18.7585 1.1345 19.7062 1.1345C20.654 1.1345 21.597 1.61115 22.4964 2.55845C23.3966 3.50667 24.2258 4.90013 24.9306 6.65512C26.3392 10.1629 27.2195 15.0364 27.2195 20.4398Z" stroke="#E77236" stroke-width="0.8"/>
<path d="M19.4756 0.734497L19.4756 39.6861" stroke="#E77236" stroke-width="0.8"/>
<path d="M38.9526 20.2103L0.000571191 20.2103" stroke="#E77236" stroke-width="0.8"/>
</svg>
