<svg width="15" height="14" viewBox="0 0 15 14" fill="none" xmlns="http://www.w3.org/2000/svg">
<path d="M3.38106 13.7831H0.379748V4.8219H3.38106V13.7831ZM1.87879 3.59951C0.919066 3.59951 0.140625 2.86249 0.140625 1.97266C0.140625 1.54524 0.323752 1.13533 0.649721 0.833103C0.97569 0.530874 1.4178 0.361084 1.87879 0.361084C2.33978 0.361084 2.78189 0.530874 3.10786 0.833103C3.43382 1.13533 3.61695 1.54524 3.61695 1.97266C3.61695 2.86249 2.83819 3.59951 1.87879 3.59951ZM14.614 13.7831H11.6192V9.42084C11.6192 8.38121 11.5965 7.04797 10.0587 7.04797C8.49828 7.04797 8.25916 8.17748 8.25916 9.34594V13.7831H5.26108V4.8219H8.1396V6.04429H8.18161C8.5823 5.34022 9.56109 4.5972 11.0214 4.5972C14.0589 4.5972 14.6172 6.45175 14.6172 8.86058V13.7831H14.614Z" fill="#161616"/>
</svg>
