<svg xmlns="http://www.w3.org/2000/svg" viewBox="0 0 60 95"><defs><style>.cls-1{fill:#fff;}</style></defs><title>pointer-8bit</title><g id="Layer_2" data-name="Layer 2"><g id="Layer_1-2" data-name="Layer 1"><path class="cls-1" d="M55,55V50H50V45H45V40H40V35H35V30H30V25H25V20H20V15H15V10H10V5H5V0H0V85H10V80h5V75h5V70h5V80h5V90h5v5H45V90h5V80H45V70H40V65H60V55Z"/><rect width="5" height="85"/><rect x="5" y="5" width="5" height="5"/><rect x="10" y="10" width="5" height="5"/><rect x="15" y="15" width="5" height="5"/><rect x="20" y="20" width="5" height="5"/><rect x="25" y="25" width="5" height="5"/><rect x="30" y="30" width="5" height="5"/><rect x="35" y="35" width="5" height="5"/><rect x="40" y="40" width="5" height="5"/><rect x="45" y="45" width="5" height="5"/><rect x="50" y="50" width="5" height="5"/><rect x="55" y="55" width="5" height="5"/><rect x="35" y="60" width="25" height="5"/><rect x="35" y="65" width="5" height="5"/><rect x="20" y="65" width="5" height="5"/><rect x="25" y="70" width="5" height="10"/><rect x="30" y="80" width="5" height="10"/><rect x="35" y="90" width="10" height="5"/><rect x="40" y="70" width="5" height="10"/><rect x="45" y="80" width="5" height="10"/><rect x="15" y="70" width="5" height="5"/><rect x="10" y="75" width="5" height="5"/><rect x="5" y="80" width="5" height="5"/></g></g></svg>