<svg width="13" height="13" viewBox="0 0 13 13" fill="none" xmlns="http://www.w3.org/2000/svg">
<path d="M8.52347 11.6206V9.4535C8.52347 8.83432 8.58378 8.58664 8.22187 8.21513C9.91081 8.02938 11.5394 7.34827 11.5394 4.50003C11.5387 3.76008 11.2575 3.04947 10.7553 2.51864C10.9908 1.87591 10.9691 1.16364 10.695 0.537254C10.695 0.537254 10.0314 0.351499 8.58378 1.34219C7.35764 1.01439 6.07014 1.01439 4.84399 1.34219C3.39633 0.351499 2.73282 0.537254 2.73282 0.537254C2.45866 1.16364 2.43697 1.87591 2.6725 2.51864C2.17031 3.04947 1.88908 3.76008 1.88835 4.50003C1.88835 7.34827 3.51697 8.02938 5.20591 8.21513C4.84399 8.58664 4.84399 8.95815 4.90431 9.4535V11.6206M4.90431 10.3823C2.31058 11.2491 2.31058 8.83431 1.28516 8.52472L4.90431 10.3823Z" stroke="#161616" stroke-linecap="round" stroke-linejoin="round"/>
</svg>
