<?xml version="1.0" encoding="UTF-8"?>
<!DOCTYPE svg PUBLIC "-//W3C//DTD SVG 1.1//EN" "http://www.w3.org/Graphics/SVG/1.1/DTD/svg11.dtd">
<!-- Creator: CorelDRAW 2021 (64-Bit) -->
<svg xmlns="http://www.w3.org/2000/svg" xml:space="preserve" width="352.778mm" height="352.778mm" version="1.1" style="shape-rendering:geometricPrecision; text-rendering:geometricPrecision; image-rendering:optimizeQuality; fill-rule:evenodd; clip-rule:evenodd"
viewBox="0 0 35277.78 35277.78"
 xmlns:xlink="http://www.w3.org/1999/xlink"
 xmlns:xodm="http://www.corel.com/coreldraw/odm/2003">
 <defs>
  <style type="text/css">
   <![CDATA[
    .str0 {stroke:black;stroke-width:16.93;stroke-miterlimit:10}
    .str2 {stroke:black;stroke-width:16.93;stroke-miterlimit:10}
    .str6 {stroke:black;stroke-width:211.67;stroke-miterlimit:10}
    .str1 {stroke:black;stroke-width:176.39;stroke-miterlimit:10}
    .str3 {stroke:black;stroke-width:176.39;stroke-miterlimit:10}
    .str5 {stroke:#1A1A1A;stroke-width:176.39;stroke-miterlimit:10}
    .str4 {stroke:#1A1A1A;stroke-width:16.93;stroke-linecap:round;stroke-linejoin:round;stroke-miterlimit:22.9256}
    .fil2 {fill:none;fill-rule:nonzero}
    .fil1 {fill:black;fill-rule:nonzero}
    .fil0 {fill:black;fill-rule:nonzero}
   ]]>
  </style>
 </defs>
 <g id="Layer_x0020_2">
  <metadata id="CorelCorpID_0Corel-Layer"/>
  <path class="fil0 str0" d="M7704.75 15667.98l-714.71 -286.04 256.37 -640.59 -2798.84 -1120.13 -256.38 640.59 -714.71 -286.04 801.6 -2002.95c168.8,-421.77 330.87,-750 485.17,-987.17 154.28,-237.16 367.87,-438.32 638.27,-602.4 272.17,-163.38 583.51,-255.79 938.96,-279.38 354.73,-21.82 714.75,40.37 1076.52,185.16 294.7,117.94 553.76,278.94 780.68,484.41 226.92,205.47 392.78,415.16 496.51,626.61 105.5,212.16 163.7,440.18 178.84,683.74 15.13,243.54 2.03,455.33 -38.25,637.81 -40.27,182.47 -132.79,454.59 -276.17,812.84l-853.86 2133.54zm-19.05 -2024.28l105.94 -264.71c127.84,-319.42 187.18,-590.48 179.81,-812.51 -8.08,-220.26 -94.51,-428.87 -258.61,-627.63 -164.81,-196.99 -415.74,-362.92 -752.79,-497.82 -322.95,-129.24 -619.08,-182.25 -890.88,-157.94 -270.02,25.01 -487.47,118.16 -650.57,280.14 -163.1,161.99 -305.03,393.86 -425.8,695.63l-105.94 264.71 2798.84 1120.13z"/>
  <path class="fil0 str1" d="M8558.56 13534.59c143.54,-358.7 235.41,-629.29 275.59,-811.95 40.14,-182.57 53.06,-395.47 38.7,-638.71 -14.33,-243.17 -73.7,-470.85 -178.01,-683.12 -104.32,-212.19 -269.88,-421.28 -496.64,-627.24 -226.73,-205.91 -487.05,-367.73 -780.91,-485.35 -362.73,-145.17 -721.47,-206.41 -1076.12,-183.79 -354.68,22.64 -667.7,116.02 -939.13,280.1 -271.39,164.15 -484.43,364.56 -639.12,601.2 -154.7,236.72 -316.38,565.86 -485.07,987.32l-801.69 2003.25 714.34 285.89 256.72 -641.42 2799.64 1120.5 -256.68 641.38 714.34 285.89 854.04 -2133.95zm-3672.17 -1011.17l105.83 -264.47c120.83,-301.95 262.93,-533.65 426.33,-695.19 163.37,-161.47 380.44,-254.46 651.23,-278.94 270.76,-24.45 567.27,27.76 889.5,156.7 338.45,135.47 589.8,301.91 754.13,499.33 164.32,197.45 250.54,406.54 258.58,627.2 8.12,220.73 -51.96,491.17 -180.09,811.35l-105.87 264.48 -2799.64 -1120.46z"/>
  <path class="fil1 str2" d="M8795.44 6359.37c-93.85,-119.64 -131.41,-256.86 -113.04,-408.97 18.39,-152.13 86.07,-275.26 207.22,-370.29 121.14,-95.02 258.36,-132.59 410.48,-114.2 150.62,19.56 273.44,89.91 367.28,209.55 95.03,121.15 132.92,255.7 114.53,407.82 -18.38,152.11 -87.56,276.43 -207.2,370.28 -118.16,92.67 -255.38,130.24 -408.66,110.36 -153.62,-17.21 -277.93,-86.39 -370.61,-204.55zm662.4 1565.23l-451.64 -575.81 1175.57 -922.05 1505.07 1918.89 370.91 -290.93 450.47 574.32 -1546.48 1212.98 -450.47 -574.32 378.4 -296.79 -1053.44 -1343.08 -378.39 296.79z"/>
  <path class="fil0 str3" d="M9164.12 6562.91c153,18.27 288.79,-19.12 407.28,-112.05 120.23,-94.29 189.66,-217.13 208.18,-368.61 18.52,-151.45 -19.23,-287.13 -113.24,-407 -94.05,-119.88 -216.71,-189.59 -368.02,-209.2 -151.31,-19.61 -287.97,18.38 -409.89,114.02 -120.27,94.3 -189.27,217.63 -207.12,369.92 -17.85,152.3 20.21,288.4 114.23,408.27 92.71,118.18 215.51,186.41 368.58,204.65zm671.13 1062.56l1054.8 1344.83 -378.74 297.04 450.64 574.5 1545.76 -1212.43 -450.6 -574.54 -370.98 291.01 -1505.44 -1919.32 -1174.79 921.42 450.64 574.53 378.71 -297.04z"/>
  <path class="fil0 str2" d="M16811.64 3926.78l157.47 714.66 -510.48 112.47 503.88 2286.94c224.95,1020.95 -202.76,1650.45 -1281.25,1888.07 -618.14,136.2 -1103.04,126.25 -1455.1,-31.69l334.55 -760.79c284.54,98.86 551.91,119.75 802.5,64.54 220.9,-48.67 392.4,-144.85 517.81,-291.21 125.41,-146.36 151.4,-381.76 79.42,-708.46l-51.95 -235.76c-257.74,358.49 -539.95,570.54 -844.38,637.61 -358.27,78.94 -695.82,-4.35 -1014.13,-247.58 -320.15,-242.83 -530.63,-597.41 -632.88,-1061.48 -103.07,-467.78 -57.39,-878.8 138.92,-1233.47 194.43,-354.27 479.13,-572.71 854.11,-655.32 360.11,-79.35 688.2,-3.71 984.66,228.76l-83.02 -376.82 1499.87 -330.47zm-1153.42 1885.21c-54.81,-248.74 -153.84,-433.23 -295.27,-553.9 -143.28,-120.25 -311.44,-159.1 -502.64,-116.97 -196.77,43.35 -330.77,150.73 -400.14,321.73 -70.82,173.26 -80.68,375.9 -29.14,609.79 51.94,235.75 147.91,415.09 287.88,538.01 140.38,124.78 305.24,166.32 492.72,125.01 172.64,-38.04 304.15,-139.03 394.54,-302.98 90.4,-163.95 107.26,-370.09 52.05,-620.69z"/>
  <path class="fil0 str3" d="M15312.38 4256.28l83.67 379.73c-297.35,-233.44 -626.14,-310.52 -986.36,-231.14 -375.22,82.69 -660.05,301.34 -854.57,656.02 -194.59,354.65 -240.38,765.42 -137.51,1232.25 102.37,464.75 312.87,819.01 631.43,1062.82 318.63,243.87 656.98,326.32 1015.09,247.4 304.83,-67.13 586.45,-280.07 844.97,-638.77l52.14 236.6c71.86,326.15 45.08,562.26 -80.29,708.38 -125.42,146.05 -297.92,243.31 -517.46,291.71 -251.53,55.39 -518.9,33.87 -802.14,-64.66l-335.21 761.15c352,157.13 837.1,167.61 1455.31,31.4 1078.62,-237.67 1505.37,-867.48 1280.2,-1889.41l-504.16 -2288.11 511.64 -112.75 -157.13 -713.04 -1499.62 330.42zm293.51 2176.64c-90.17,164.04 -221.55,265.07 -394.23,303.1 -187.61,41.35 -351.55,-0.14 -491.81,-124.63 -140.3,-124.43 -236.29,-303.85 -287.94,-538.38 -51.68,-234.45 -42.3,-437.69 28.26,-609.74 70.49,-171.94 203.8,-279.58 399.94,-322.79 191.84,-42.26 359.13,-3.11 501.94,117.4 142.77,120.55 241.65,305.47 296.61,554.89 54.96,249.41 37.33,456.14 -52.77,620.15z"/>
  <path class="fil0 str4" d="M20308.46 3391.66c34.13,-148.18 117.29,-263.61 247.19,-344.87 129.91,-81.26 268.23,-105.96 418.27,-71.39 150.03,34.56 265.47,117.72 346.72,247.63 79.41,129.48 101.83,269.23 67.69,417.41 -34.56,150.04 -115.44,264.04 -245.35,345.3 -129.9,81.27 -270.09,105.53 -418.27,71.4 -146.32,-33.71 -261.76,-116.87 -342.58,-248.63 -83.12,-130.34 -107.39,-270.51 -73.67,-416.85zm-801.7 1498.66l164.28 -713.12 1455.9 335.41 -547.49 2376.47 459.37 105.83 -163.86 711.28 -1915.27 -441.24 163.87 -711.27 468.62 107.96 383.2 -1663.35 -468.62 -107.97z"/>
  <path class="fil0 str5" d="M20381.71 3806.38c81.88,130.53 196.25,212.69 343.05,246.49 148.83,34.29 288.07,11.15 417.54,-69.57 129.47,-80.75 211.32,-195.33 245.54,-343.82 34.18,-148.45 11.36,-287.69 -68.41,-417.76 -79.83,-130.03 -195.22,-212.47 -346.21,-247.29 -148.95,-34.29 -288.22,-10.52 -417.94,71.26 -129.75,81.77 -211.7,196.88 -245.88,345.37 -33.73,146.33 -9.64,284.76 72.31,415.32zm-405.09 1189.68l-383.72 1665.49 -469.01 -108.05 -163.94 711.52 1914.38 441.04 163.9 -711.52 -459.42 -105.83 547.58 -2377.05 -1454.92 -335.18 -163.9 711.52 469.05 108.06z"/>
  <path class="fil0 str2" d="M23082.2 6014.28l380.67 -625 344.16 209.62 259.05 -425.33 1242.35 -95.73 -637.76 1047.09 498.38 303.54 -380.67 625 -498.38 -303.55 -713.89 1172.09c-64.26,105.52 -94.79,184.86 -89.93,239.01 4.85,54.15 55.67,109.57 153.07,168.9 79.55,48.45 182.32,84.34 305.71,108.31l-364.85 599.02c-277.78,-44.54 -521.37,-130.59 -734.04,-260.12 -474.02,-288.72 -567.67,-668.48 -281.92,-1137.63l862.21 -1415.6 -344.16 -209.62z"/>
  <path class="fil0 str3" d="M23427.73 6221.86l-862.97 1416.83c-286.49,470.39 -193.04,849.77 280.5,1138.2 212.55,129.47 457.51,216.07 735.01,259.85l364.49 -598.45c-123.4,-23.99 -225.18,-60.46 -305.29,-109.29 -96.95,-59.02 -147.89,-114.97 -152.69,-167.85 -4.86,-52.92 25.16,-132.57 90,-239.08l715.01 -1173.94 497.77 303.18 379.8 -623.61 -497.74 -303.14 636.98 -1045.84 -1242.2 94.47 -258.84 425.06 -343.95 -209.48 -379.84 623.61 343.96 209.48z"/>
  <path class="fil0 str2" d="M27301.26 12535.44l-600.73 414.6 -864.83 -1253.08 204.93 -141.44c-316.6,-114.06 -562.06,-295.7 -733.73,-544.45 -178.14,-258.12 -259.01,-532.58 -241.52,-821.79 17.49,-289.22 149.82,-519.13 398.56,-690.8 250.3,-172.74 527.95,-218.86 834.03,-136.79 303.42,81.59 563.89,278.28 779.83,591.16 119.85,173.65 214.24,404.12 283.18,691.42l159.57 -110.13c132.98,-91.78 209.61,-211.64 234.11,-360.19 24.5,-148.55 -16.4,-298.16 -121.13,-449.91 -128.48,-186.16 -308.52,-299.79 -536.39,-338.83l-342.73 -754.26c545.31,-89.97 1042.25,188.33 1490.32,837.55 173.83,251.87 289.26,479.37 347.39,684.07 55.48,204.2 67.26,378.54 34.23,521.43 -34.1,141.32 -92.72,267.23 -176.42,373.49 -85.27,107.35 -247.04,244.41 -487.96,410.68l-951.14 656.45 290.43 420.82zm-500.33 -1504.65c-14.12,-288.18 -62.75,-492.49 -145.89,-612.95 -65.86,-95.43 -153.4,-162.05 -262.14,-202.47 -110.3,-39.36 -218.64,-22.32 -323.46,50.02 -95.43,65.86 -155.18,153.3 -178.18,263.86 -25.65,110.09 -3.92,215.18 64.1,313.74 106.89,154.88 317.47,265.91 632.81,334.64l212.76 -146.84z"/>
  <path class="fil0 str3" d="M27011.08 12114.56l951.26 -656.52c240.7,-166.13 403.05,-302.72 487.01,-409.72 83.89,-107 142.91,-231.91 176.95,-374.75 34.05,-142.84 22.33,-316.45 -35.17,-520.78 -57.5,-204.36 -173,-432.25 -346.57,-683.75 -447.6,-648.55 -944.07,-927.84 -1489.35,-837.95l341.84 754.7c228.24,38.73 406.89,151.44 535.83,338.31 104.14,150.92 144.53,300.71 121.22,449.44 -23.36,148.69 -101.46,268.96 -234.42,360.71l-159 109.72c-68.19,-287.09 -162.42,-517.81 -282.68,-692.05 -215.76,-312.59 -476.29,-509.41 -781.51,-590.51 -305.26,-81.07 -582.75,-35.39 -832.45,136.95 -247.9,171.09 -380.75,401.35 -398.46,690.74 -17.78,289.38 62.65,563.45 241.16,822.14 172.33,249.7 417.26,430.75 734.9,543.11l-206.16 142.27 864.8 1253.07 600.96 -414.73 -290.16 -420.4zm-423.8 -936.84c-315.34,-68.76 -526.34,-180.45 -632.95,-334.93 -68.23,-98.81 -89.89,-203.2 -64.98,-313.19 24.83,-110 84.88,-197.84 180.13,-263.56 105.97,-73.13 213.78,-89.86 323.42,-50.17 109.61,39.76 197.28,107.14 263.03,202.39 83.01,120.33 131.1,324.56 144.26,612.56l-212.91 146.9z"/>
  <polygon class="fil0 str2" points="27043.07,14297.92 27761.91,14171.3 27848.31,14661.75 30895.89,14124.93 30809.5,13634.47 31528.34,13507.85 31790.16,14994.2 28023.73,15657.65 28102.87,16106.93 27384.03,16233.55 "/>
  <polygon class="fil0 str3" points="27383.94,16233.03 28103.04,16106.35 28024.09,15658.15 31790.35,14994.71 31528.52,13508.18 30809.45,13634.86 30895.77,14125.01 27848.55,14661.76 27762.22,14171.61 27043.16,14298.29 "/>
  <polygon class="fil0 str0" points="3630.82,20410.57 4338.09,20106.62 4562.49,20628.78 7332.23,19438.5 7107.83,18916.33 7815.11,18612.38 8683.44,20632.92 7976.15,20936.88 7787.78,20498.54 6870.93,20892.55 7360.26,22031.18 8277.1,21637.17 8095.48,21214.55 8802.76,20910.6 9665.83,22918.92 8958.55,23222.87 8732.65,22697.22 5962.91,23887.5 6188.81,24413.16 5481.54,24717.11 4618.47,22708.78 5325.74,22404.84 5507.36,22827.45 6649.49,22336.63 6160.17,21198 5018.04,21688.82 5206.41,22127.16 4499.14,22431.11 "/>
  <polygon class="fil0 str1" points="4499.19,22431.24 5206.12,22127.46 5017.38,21688.22 6160.49,21197.01 6650.43,22337.08 5507.35,22828.36 5325.07,22404.18 4618.14,22707.99 5480.4,24714.49 6187.33,24410.64 5962.4,23887.22 8732.94,22696.6 8957.87,23220.02 9664.81,22916.24 8802.55,20909.74 8095.61,21213.56 8277.89,21637.74 7360.39,22032.04 6870.42,20891.89 7787.92,20497.59 7976.66,20936.8 8683.59,20632.99 7814.87,18611.5 7107.94,18915.28 7332.87,19438.73 4562.33,20629.36 4337.4,20105.94 3630.47,20409.72 "/>
  <path class="fil0 str2" d="M11062.46 24702.51c93.16,-120.17 217.07,-190.06 369.08,-209.32 152.02,-19.25 287.94,16.37 409.63,110.71 121.68,94.32 191.57,218.24 210.81,370.25 17.75,150.85 -20.53,287.11 -113.7,407.29 -94.33,121.69 -215.58,191.24 -367.59,210.49 -152,19.25 -289.44,-17.53 -409.62,-110.7 -118.68,-91.99 -188.56,-215.92 -206.65,-369.43 -20.75,-153.18 16.03,-290.6 108.04,-409.29zm-1356.55 1023.97l448.35 -578.37 1180.8 915.33 -1494.12 1927.43 372.57 288.81 -447.19 576.88 -1553.36 -1204.14 447.19 -576.88 380.07 294.63 1045.77 -1349.06 -380.08 -294.63z"/>
  <path class="fil0 str3" d="M10954.93 25109.7c19.58,152.86 88.94,275.41 207.97,367.7 120.72,93.55 256.78,130.98 408.2,112.04 151.41,-18.98 273.79,-88.65 367.13,-209.06 93.35,-120.43 131.02,-256.39 113.21,-407.91 -17.89,-151.56 -88.05,-274.82 -210.54,-369.75 -120.75,-93.59 -257.17,-130.49 -409.26,-110.7 -152.04,19.83 -274.74,89.89 -368.08,210.33 -92.01,118.67 -128.24,254.45 -108.63,407.35zm-866.91 909.88l-1047.12 1350.82 -380.4 -294.88 -447.32 577.07 1552.65 1203.57 447.32 -577.04 -372.64 -288.89 1494.47 -1927.86 -1180 -914.75 -447.33 577.08 380.37 294.88z"/>
  <path class="fil0 str2" d="M14699.62 31599.96l-152.9 713.7 -2131.84 -456.71 152.9 -713.7 522.27 111.89 657.4 -3068.61 -436.78 -93.57 153.3 -715.56 1425.57 305.4 -82.82 386.59c337.19,-231.01 674.92,-310.28 1015.05,-237.42 410.76,88 697.66,318.58 864.02,694.41 166.37,375.83 201.83,781.94 109.05,1215 -98.34,459.07 -300.38,812.36 -608.36,1061.3 -307.99,248.93 -663.65,330.19 -1070.68,242.99 -330.85,-70.88 -604.07,-265.49 -821.93,-582.37l-215.02 1003.67 620.77 132.99zm1084.8 -2096.43c57.74,-269.51 45.38,-484.05 -37.08,-643.62 -84.71,-158.1 -217.2,-256.47 -401.21,-295.89 -185.86,-39.82 -351.13,-3.3 -495.84,109.55 -146.55,112.46 -247.97,304.55 -306.51,577.77 -52.56,245.35 -37.14,454.7 45.84,629.94 82.98,175.23 221.32,282.62 412.76,323.64 176.57,37.82 335.87,1.98 478.31,-109.41 142.05,-109.54 242.81,-307.61 303.73,-591.98z"/>
  <path class="fil0 str3" d="M14078.79 31466.21l214.67 -1002.07c217.87,316.8 492.19,510.58 823.06,581.49 405.49,86.85 762.18,5.89 1069.98,-242.92 307.8,-248.82 510.86,-602.65 609.18,-1061.55 92.81,-433.28 56.12,-837.92 -109.97,-1213.98 -166.12,-375.99 -454.06,-607.9 -863.88,-695.71 -339.33,-72.71 -677.93,7.13 -1015.64,239.5l83.29 -389.01 -1424.66 -305.22 -152.97 713.95 435.4 93.28 -657.75 3070.29 -521.87 -111.79 -152.93 713.98 2132.26 456.78 152.93 -713.95 -621.1 -133.07zm1401.98 -1370.58c-141.96,110.25 -301.49,146.41 -478.65,108.48 -192.05,-41.17 -329.74,-148.8 -413,-322.93 -83.25,-174.03 -98.6,-383.86 -46,-629.32 58.52,-273.19 160.69,-466.16 306.53,-578.91 145.8,-112.75 311.57,-149.22 497.27,-109.43 183.52,39.3 316.94,138.22 400.19,296.69 83.26,158.46 95.82,373.27 37.75,644.31 -60.78,283.88 -162.17,480.91 -304.09,591.11z"/>
  <path class="fil0 str2" d="M23061.82 30883.95l255.1 683.87 -2042.71 761.99 -255.1 -683.86 500.43 -186.68 -1096.83 -2940.32 -418.52 156.12 -255.77 -685.64 1365.98 -509.56 138.18 370.43c159.93,-376.14 401.97,-624.67 727.88,-746.24 393.58,-146.82 759.48,-106.81 1101.92,120.48 342.43,227.29 590.82,550.52 745.61,965.48 164.09,439.88 183.86,846.38 58.18,1221.92 -125.67,375.53 -381.74,635.38 -771.76,780.87 -317.01,118.26 -652.03,101.21 -1006.16,-48.68l358.75 961.71 594.82 -221.89zm-213.52 -2350.79c-96.33,-258.24 -222.17,-432.43 -377.52,-522.57 -156.47,-87.7 -321.08,-99.34 -497.39,-33.57 -178.1,66.44 -297.76,186.14 -359.02,359.12 -63.04,173.64 -45.18,390.13 52.48,651.93 87.7,235.09 213.33,403.27 377.56,506.34 164.23,103.06 338.61,119.15 522.05,50.73 169.19,-63.12 284.18,-179.04 344.32,-349.57 60.81,-168.76 39.16,-389.93 -62.48,-662.41z"/>
  <path class="fil0 str3" d="M22466.55 31105.23l-358.18 -960.19c354.08,149.83 689.61,165.63 1006.62,47.35 388.55,-144.93 645.69,-405.1 771.24,-780.45 125.59,-375.32 106.36,-782.82 -57.68,-1222.56 -154.87,-415.14 -403.51,-736.49 -745.81,-964.1 -342.33,-227.58 -709.82,-268.15 -1102.5,-121.71 -325.19,121.32 -567.62,370.77 -727.28,748.35l-139.07 -372.71 -1365.11 509.2 255.17 684.14 417.23 -155.65 1097.45 2941.92 -500.06 186.59 255.16 684.07 2043.15 -762.14 -255.2 -684.11 -595.13 222zm444.39 -1909.58c-60.36,169.3 -175.4,285.61 -345.16,348.93 -184.04,68.65 -358,52 -521.83,-49.95 -163.83,-101.96 -289.63,-270.55 -377.36,-505.75 -97.65,-261.76 -115.4,-479.42 -53.13,-652.92 62.26,-173.46 182.35,-293.4 360.29,-359.76 175.9,-65.65 341.56,-54.04 496.96,34.75 155.43,88.79 281.66,263.07 378.53,522.78 101.46,272.03 121.99,492.65 61.7,661.92z"/>
  <path class="fil0 str2" d="M24652.8 24337.74c-109.36,-105.66 -165.39,-236.43 -168.03,-389.63 -2.64,-153.2 47.52,-284.46 154.5,-395.19 106.98,-110.73 237.75,-166.76 390.95,-169.39 151.88,-1.28 283.19,51.58 392.55,157.23 110.73,106.98 166.71,235.06 169.35,388.27 2.64,153.19 -48.84,285.83 -154.5,395.19 -104.33,107.99 -235.11,164.01 -389.67,165.33 -154.53,4.01 -287.15,-47.47 -395.15,-151.81zm870.7 1459.65l-526.3 -508.46 1038.08 -1074.49 1753.89 1694.47 327.54 -339.03 524.94 507.16 -1365.62 1413.51 -524.94 -507.16 334.14 -345.86 -1227.59 -1185.99 -334.14 345.85z"/>
  <path class="fil0 str3" d="M25045.89 24488.82c154.1,-2.89 283.46,-58.49 388.09,-166.83 106.15,-109.89 158.08,-241.08 155.68,-393.66 -2.4,-152.58 -58.38,-281.76 -167.99,-387.63 -109.54,-105.87 -240.63,-158.08 -393.17,-156.78 -152.58,1.31 -282.75,57.65 -390.42,169.12 -106.15,109.93 -157.62,241.52 -154.45,394.83 3.18,153.32 59.55,282.9 169.09,388.76 108.06,104.36 239.08,155.09 393.17,152.19zm810.44 960.55l1229.18 1187.52 -334.4 346.14 525.11 507.33 1364.97 -1412.87 -525.11 -507.33 -327.59 339.12 -1754.29 -1694.88 -1037.41 1073.75 525.1 507.33 334.44 -346.11z"/>
  <path class="fil0 str2" d="M30462.16 20624.4l504.49 -654.72c375.01,484.57 443.68,1056.81 206.02,1716.71 -189.36,525.78 -476.34,885.08 -859.81,1080.32 -383.47,195.26 -799.96,212.94 -1252.41,49.99 -459.61,-165.53 -789.36,-456.02 -989.25,-871.46 -198.11,-414.8 -212.15,-858.26 -42.76,-1328.6 123.02,-341.57 314.49,-603.95 577.49,-790.06 263,-186.1 539.42,-280.49 829.95,-284.97 290.51,-4.46 595.82,50.95 912.36,164.95l-799.94 2221.13c275.84,81.16 498.11,64.24 667.46,-52.56 168.7,-115.01 285.82,-260.72 348.3,-434.19 82.44,-228.91 49.28,-501.47 -101.9,-816.54zm-989.64 -152.36c-174.69,-36.65 -339.15,-23.16 -495.83,41.64 -155.53,67.22 -267.36,192.62 -334.98,380.39 -125.6,348.74 1.26,624.74 381.25,826.23l449.56 -1248.26z"/>
  <path class="fil0 str3" d="M30565.07 21440.33c-62.86,174.55 -179.07,320.04 -348.61,436.49 -169.51,116.45 -392.47,133.07 -668.69,49.74l799.89 -2221.05c-316.23,-113.88 -620.08,-168.81 -911.62,-164.75 -291.46,4.13 -568.18,99.34 -830.19,285.65 -262.01,186.37 -454.41,450.07 -577.18,790.92 -169.37,470.33 -154.76,912.92 43.82,1327.79 198.57,414.9 527.93,705.17 987.91,870.83 451.81,162.74 869.39,146.65 1252.79,-48.19 383.4,-194.84 669.75,-555.13 859.12,-1080.91 237.38,-659.2 168.59,-1231.51 -206.45,-1716.93l-503.45 653.87c150.5,316.44 184.75,588.57 102.66,816.54zm-1541.6 280c-379.8,-201.68 -506.77,-477.1 -381.04,-826.24 67.28,-186.87 178.93,-313.27 334.93,-379.2 155.96,-65.94 321.13,-79.98 495.41,-42.16l-449.3 1247.6z"/>
  <polygon class="fil0 str0" points="4669.26,16419.66 4907.49,17152.8 5678.38,17152.8 5054.71,17605.94 5292.94,18339.08 4669.26,17885.98 4045.59,18339.08 4283.82,17605.94 3660.14,17152.8 4431.03,17152.8 "/>
  <polygon class="fil0 str2" points="30283.43,16419.66 30521.66,17152.8 31292.52,17152.8 30668.88,17605.94 30907.11,18339.08 30283.43,17885.98 29659.76,18339.08 29897.99,17605.94 29274.31,17152.8 30045.2,17152.8 "/>
  <path class="fil2 str6" d="M24532.88 15472.6c1226.43,3798.95 -859.01,7872.83 -4657.97,9099.26 -3798.96,1226.44 -7872.84,-859.01 -9099.27,-4657.97 -1226.43,-3798.96 859.01,-7872.83 4657.97,-9099.27 3798.96,-1226.43 7872.84,859.02 9099.27,4657.98z"/>
  <path class="fil2 str6" d="M24532.88 15472.6c1076.78,3335.44 -1129.98,7033.54 -4928.91,8259.97 -3798.95,1226.43 -7751.55,-483.24 -8828.33,-3818.68 -1076.78,-3335.44 1129.98,-7033.54 4928.94,-8259.97 3798.96,-1226.43 7751.52,483.23 8828.3,3818.68z"/>
  <path class="fil2 str6" d="M24532.88 15472.6c717.65,2222.95 -1780.26,5019.25 -5579.22,6245.68 -3798.96,1226.43 -7460.36,418.57 -8178.02,-1804.39 -717.66,-2222.96 1780.26,-5019.25 5579.21,-6245.68 3798.96,-1226.43 7460.37,-418.57 8178.03,1804.39z"/>
  <path class="fil2 str6" d="M24532.88 15472.6c358.49,1110.5 -2430.53,3004.96 -6229.49,4231.39 -3798.96,1226.43 -7169.26,1320.41 -7527.75,209.9 -358.49,-1110.47 2430.53,-3004.96 6229.49,-4231.36 3798.96,-1226.43 7169.26,-1320.44 7527.75,-209.93z"/>
  <path class="fil2 str6" d="M24532.88 15472.6c0,0 -3079.65,994.23 -6878.6,2220.66 -3798.96,1226.43 -6878.64,2220.63 -6878.64,2220.63 0,0 3079.68,-994.2 6878.64,-2220.63 3798.95,-1226.43 6878.6,-2220.66 6878.6,-2220.66z"/>
  <path class="fil2 str6" d="M23693.59 15743.55c1226.43,3798.95 -483.24,7751.55 -3818.68,8828.33 -3335.44,1076.78 -7033.54,-1129.98 -8259.97,-4928.94 -1226.44,-3798.96 483.23,-7751.52 3818.67,-8828.33 3335.45,-1076.79 7033.55,1129.98 8259.98,4928.94z"/>
  <path class="fil2 str6" d="M21679.29 16393.83c1226.43,3798.96 418.57,7460.41 -1804.39,8178.03 -2222.96,717.65 -5019.25,-1780.23 -6245.68,-5579.18 -1226.4,-3798.96 -418.57,-7460.41 1804.39,-8178.06 2222.96,-717.66 5019.25,1780.25 6245.68,5579.21z"/>
  <path class="fil2 str6" d="M19664.99 17044.11c1226.43,3798.96 1320.41,7169.26 209.94,7527.75 -1110.51,358.5 -3004.96,-2430.53 -4231.39,-6229.49 -1226.44,-3798.96 -1320.42,-7169.25 -209.91,-7527.75 1110.48,-358.49 3004.93,2430.54 4231.36,6229.49z"/>
  <path class="fil2 str6" d="M17654.26 17693.24c1226.43,3798.96 2220.63,6878.64 2220.63,6878.64 0,0 -994.2,-3079.68 -2220.63,-6878.64 -1226.43,-3798.95 -2220.63,-6878.63 -2220.63,-6878.63 0,0 994.2,3079.68 2220.63,6878.63z"/>
 </g>
</svg>
